<?xml version="1.0" encoding="iso-8859-1"?>
<!-- Generator: Adobe Illustrator 21.0.0, SVG Export Plug-In . SVG Version: 6.00 Build 0)  -->
<svg version="1.1" id="Capa_1" xmlns="http://www.w3.org/2000/svg" xmlns:xlink="http://www.w3.org/1999/xlink" x="0px" y="0px"
	 viewBox="0 0 512 512" style="enable-background:new 0 0 512 512;" xml:space="preserve">
<g>
	<g>
		<g>
			<path style="fill: #0069d9;" d="M494.933,0H375.467C366.041,0,358.4,7.641,358.4,17.067v204.8c0,9.426,7.641,17.067,17.067,17.067h51.2v136.533h-42.948
				c-0.171-2.671-0.418-5.291-0.759-7.825c-0.449-3.371-2.856-6.153-6.127-7.083l-27.819-7.91c-1.41-4.21-3.107-8.318-5.077-12.297
				l14.02-25.224c1.648-2.959,1.39-6.612-0.657-9.31c-6.705-8.662-14.481-16.438-23.142-23.142
				c-2.696-2.043-6.345-2.301-9.301-0.657l-25.284,14.02c-3.958-1.976-8.05-3.673-12.245-5.077l-7.91-27.793
				c-0.929-3.271-3.712-5.678-7.083-6.127c-2.56-0.333-5.12-0.589-7.825-0.759v-17.348h51.2c9.426,0,17.067-7.641,17.067-17.067
				v-204.8C332.774,7.641,325.133,0,315.708,0H196.267C186.841,0,179.2,7.641,179.2,17.067v204.8
				c0,9.426,7.641,17.067,17.067,17.067h51.2v17.348c-2.671,0.171-5.299,0.427-7.825,0.759c-3.371,0.449-6.153,2.856-7.083,6.127
				l-7.91,27.819c-4.21,1.41-8.318,3.107-12.297,5.077l-25.224-14.02c-2.959-1.648-6.612-1.39-9.31,0.657
				c-8.662,6.705-16.438,14.481-23.142,23.142c-2.043,2.696-2.301,6.345-0.657,9.301l14.02,25.284
				c-1.976,3.958-3.673,8.05-5.077,12.245l-27.793,7.91c-3.271,0.929-5.678,3.712-6.127,7.083c-0.341,2.56-0.589,5.12-0.759,7.825
				H85.333V238.933h51.2c9.426,0,17.067-7.641,17.067-17.067v-204.8C153.6,7.641,145.959,0,136.533,0H17.067
				C7.641,0,0,7.641,0,17.067v204.8c0,9.426,7.641,17.067,17.067,17.067h51.2v136.533c0,9.426,7.641,17.067,17.067,17.067h42.948
				c0.171,2.671,0.418,5.291,0.759,7.825c0.449,3.371,2.856,6.153,6.127,7.083l27.793,7.91c1.41,4.21,3.107,8.318,5.077,12.297
				l-14.02,25.225c-1.648,2.959-1.39,6.612,0.657,9.31c6.705,8.662,14.481,16.438,23.142,23.142
				c2.696,2.043,6.345,2.301,9.301,0.657l25.284-14.02c3.958,1.976,8.05,3.673,12.245,5.077l7.91,27.793
				c0.929,3.271,3.712,5.678,7.083,6.127c10.861,1.388,21.855,1.388,32.717,0c3.371-0.449,6.153-2.856,7.083-6.127l7.91-27.793
				c4.21-1.41,8.318-3.107,12.297-5.077l25.225,14.02c2.959,1.648,6.612,1.39,9.31-0.657c8.662-6.705,16.438-14.481,23.142-23.142
				c2.043-2.696,2.301-6.345,0.657-9.301l-14.02-25.284c1.976-3.958,3.673-8.05,5.077-12.245l27.793-7.91
				c3.271-0.929,5.678-3.712,6.127-7.083c0.341-2.56,0.589-5.12,0.759-7.825h42.948c9.426,0,17.067-7.641,17.067-17.067V238.933
				h51.2c9.426,0,17.067-7.641,17.067-17.067v-204.8C512,7.641,504.359,0,494.933,0z M17.067,17.067h119.467v25.6H17.067V17.067z
				 M17.067,59.733h119.467V179.2H17.067V59.733z M76.8,213.333c-4.713,0-8.533,3.82-8.533,8.533h-51.2v-25.6h119.467v25.6h-51.2
				C85.333,217.154,81.513,213.333,76.8,213.333z M196.267,17.067h119.467v25.6H196.267V17.067z M196.267,59.733h119.467V179.2
				H196.267V59.733z M196.267,221.867v-25.6h119.467v25.6h-51.2c0-4.713-3.82-8.533-8.533-8.533s-8.533,3.82-8.533,8.533H196.267z
				 M366.618,392.61l-26.709,7.595c-2.873,0.823-5.107,3.089-5.888,5.973c-1.682,6.052-4.097,11.875-7.194,17.34
				c-1.453,2.592-1.453,5.753,0,8.346l13.483,24.32c-1.843,2.167-3.817,4.278-5.922,6.332c-1.98,2.031-4.048,3.965-6.204,5.803
				l-24.277-13.491c-2.585-1.444-5.734-1.444-8.32,0c-5.509,3.089-11.367,5.51-17.451,7.211c-2.885,0.781-5.151,3.015-5.973,5.888
				l-7.595,26.709c-5.732,0.418-11.488,0.418-17.22,0l-7.595-26.709c-0.823-2.873-3.089-5.107-5.973-5.888
				c-6.052-1.682-11.875-4.097-17.34-7.194c-2.592-1.453-5.753-1.453-8.346,0l-24.32,13.483c-2.167-1.843-4.278-3.817-6.332-5.922
				c-2.031-1.98-3.965-4.048-5.803-6.204l13.483-24.243c1.444-2.585,1.444-5.734,0-8.32c-3.089-5.509-5.51-11.367-7.211-17.451
				c-0.781-2.885-3.015-5.151-5.888-5.973l-26.709-7.595c-0.137-2.799-0.247-5.675-0.247-8.619c0-2.944,0.111-5.82,0.316-8.61
				l26.709-7.595c2.873-0.823,5.107-3.089,5.888-5.973c1.682-6.052,4.097-11.875,7.194-17.34c1.453-2.592,1.453-5.753,0-8.346
				l-13.483-24.32c1.843-2.167,3.817-4.278,5.922-6.332c1.98-2.031,4.048-3.965,6.204-5.803l24.243,13.483
				c2.585,1.444,5.734,1.444,8.32,0c5.509-3.089,11.368-5.51,17.451-7.211c2.885-0.781,5.151-3.015,5.973-5.888l7.595-26.709
				c5.732-0.418,11.488-0.418,17.22,0l7.595,26.709c0.823,2.873,3.089,5.107,5.973,5.888c6.052,1.682,11.875,4.097,17.34,7.194
				c2.589,1.463,5.756,1.463,8.346,0l24.32-13.483c2.167,1.843,4.278,3.817,6.332,5.922c2.031,1.98,3.965,4.048,5.803,6.204
				l-13.5,24.303c-1.444,2.586-1.444,5.735,0,8.32c3.089,5.509,5.51,11.368,7.211,17.451c0.781,2.885,3.015,5.151,5.888,5.973
				l26.709,7.595c0.205,2.79,0.316,5.666,0.316,8.61C366.95,386.987,366.822,389.82,366.618,392.61z M494.933,221.867h-51.2
				c0-4.713-3.82-8.533-8.533-8.533s-8.533,3.82-8.533,8.533h-51.2v-25.6h119.467V221.867z M494.933,179.2H375.467V59.733h119.467
				V179.2z M494.933,42.667H375.467v-25.6h119.467V42.667z"/>
			<path style="fill: #0069d9;" d="M76.8,76.8H42.667c-4.713,0-8.533,3.82-8.533,8.533s3.82,8.533,8.533,8.533H76.8c4.713,0,8.533-3.821,8.533-8.533
				S81.513,76.8,76.8,76.8z"/>
			<path style="fill: #0069d9;" d="M115.712,78.251c-0.477-0.322-0.993-0.58-1.536-0.768c-0.484-0.245-1.002-0.418-1.536-0.512
				c-2.811-0.574-5.722,0.29-7.765,2.304c-1.563,1.633-2.448,3.798-2.475,6.059c-0.023,2.27,0.869,4.454,2.475,6.059
				c0.83,0.753,1.782,1.359,2.816,1.792c2.066,0.911,4.419,0.911,6.485,0c1.033-0.435,1.985-1.041,2.816-1.792
				c1.602-1.607,2.493-3.789,2.475-6.059c-0.031-2.259-0.915-4.423-2.475-6.059C116.585,78.91,116.157,78.568,115.712,78.251z"/>
			<path style="fill: #0069d9;" d="M256,76.8h-34.133c-4.713,0-8.533,3.82-8.533,8.533s3.82,8.533,8.533,8.533H256c4.713,0,8.533-3.821,8.533-8.533
				S260.713,76.8,256,76.8z"/>
			<path style="fill: #0069d9;" d="M294.912,78.251c-0.477-0.322-0.993-0.58-1.536-0.768c-0.484-0.245-1.002-0.418-1.536-0.512
				c-2.811-0.574-5.722,0.29-7.765,2.304c-1.563,1.633-2.447,3.798-2.475,6.059c-0.023,2.27,0.869,4.454,2.475,6.059
				c0.83,0.753,1.782,1.359,2.816,1.792c2.066,0.911,4.419,0.911,6.485,0c1.033-0.435,1.985-1.041,2.816-1.792
				c1.602-1.607,2.493-3.789,2.475-6.059c-0.031-2.259-0.915-4.423-2.475-6.059C295.785,78.91,295.357,78.568,294.912,78.251z"/>
			<path style="fill: #0069d9;" d="M401.067,93.867H435.2c4.713,0,8.533-3.821,8.533-8.533s-3.82-8.533-8.533-8.533h-34.133
				c-4.713,0-8.533,3.82-8.533,8.533S396.354,93.867,401.067,93.867z"/>
			<path style="fill: #0069d9;" d="M466.091,93.184c2.066,0.911,4.419,0.911,6.485,0c1.033-0.435,1.985-1.041,2.816-1.792
				c1.602-1.607,2.493-3.789,2.475-6.059c-0.031-2.259-0.915-4.423-2.475-6.059c-0.407-0.365-0.835-0.707-1.28-1.024
				c-0.477-0.322-0.993-0.58-1.536-0.768c-0.484-0.245-1.002-0.418-1.536-0.512c-2.811-0.574-5.722,0.29-7.765,2.304
				c-1.563,1.633-2.448,3.798-2.475,6.059c-0.023,2.27,0.869,4.454,2.475,6.059C464.105,92.145,465.057,92.751,466.091,93.184z"/>
			<path style="fill: #0069d9;" d="M256,324.267c-28.498-0.006-53.031,20.119-58.596,48.068s9.388,55.937,35.714,66.847s56.694,1.704,72.53-21.988
				s12.731-55.272-7.417-75.426C287.058,330.526,271.85,324.224,256,324.267z M286.165,414.165
				c-14.396,14.391-36.953,16.609-53.876,5.298s-23.499-33.003-15.706-51.807c7.793-18.805,27.785-29.485,47.748-25.51
				s34.339,21.499,34.335,41.854C298.695,395.321,294.194,406.183,286.165,414.165z"/>
			<path style="fill: #0069d9;" d="M237.909,365.892c-4.826,4.788-7.531,11.31-7.509,18.108c0.002,10.35,6.237,19.681,15.798,23.644
				c9.562,3.963,20.569,1.778,27.892-5.536c4.829-4.785,7.534-11.309,7.509-18.108c0.058-6.805-2.652-13.341-7.509-18.108
				C264.022,356.089,247.978,356.089,237.909,365.892z M262.033,390.033c-1.591,1.617-3.765,2.527-6.033,2.527
				c-2.268,0-4.442-0.91-6.033-2.527c-1.64-1.573-2.546-3.761-2.5-6.033c-0.031-2.269,0.874-4.451,2.5-6.033
				c2.44-2.44,6.11-3.169,9.298-1.849c3.188,1.32,5.267,4.431,5.268,7.882C264.564,386.269,263.66,388.451,262.033,390.033z"/>
		</g>
	</g>
</g>
<g>
</g>
<g>
</g>
<g>
</g>
<g>
</g>
<g>
</g>
<g>
</g>
<g>
</g>
<g>
</g>
<g>
</g>
<g>
</g>
<g>
</g>
<g>
</g>
<g>
</g>
<g>
</g>
<g>
</g>
</svg>
