<?xml version="1.0" encoding="iso-8859-1"?>
<!-- Generator: Adobe Illustrator 19.0.0, SVG Export Plug-In . SVG Version: 6.00 Build 0)  -->
<svg version="1.1" id="Capa_1" xmlns="http://www.w3.org/2000/svg" xmlns:xlink="http://www.w3.org/1999/xlink" x="0px" y="0px"
	 viewBox="0 0 512 512" style="enable-background:new 0 0 512 512;" xml:space="preserve">
<g>
	<g>
		<path style="fill: #0069d9;" d="M498.075,76.652c-8.977-8.662-20.784-13.199-33.285-12.745c-11.963,0.425-23.104,5.54-31.371,14.403
			c-8.089,8.673-12.544,19.988-12.544,31.861v59.689c-4.431-1.51-9.12-2.344-13.949-2.43c-12.478-0.217-24.208,4.516-33.03,13.338
			l-51.718,51.719c-17.693,17.692-27.437,41.216-27.437,66.238v95.166h-26.205v117.91H459.43v-117.91h-38.956v-25.809l64.09-64.089
			C502.256,286.301,512,262.777,512,237.756V109.439C512,96.962,507.055,85.318,498.075,76.652z M429.43,423.892v57.91H298.536
			v-57.91H429.43z M463.35,282.78l-72.876,72.876v38.234h-65.733v-95.166c0-17.009,6.624-32.999,18.65-45.025l51.718-51.719
			c3.014-3.014,7.033-4.637,11.284-4.556c4.259,0.075,8.211,1.842,11.128,4.975c5.633,6.048,5.22,15.966-0.922,22.107
			l-51.905,51.905l21.213,21.213l51.905-51.905c8.396-8.396,13.248-19.547,13.66-31.399c0.109-3.118-0.099-6.193-0.597-9.193
			v-94.956c0-8.686,6.72-15.99,14.98-16.284c4.292-0.148,8.321,1.394,11.387,4.352c3.068,2.961,4.757,6.938,4.757,11.2v128.316H482
			C482,254.764,475.376,270.754,463.35,282.78z"/>
	</g>
</g>
<g>
	<g>
		<circle style="fill: #0069d9;" cx="400.29" cy="452.85" r="15"/>
	</g>
</g>
<g>
	<g>
		<path style="fill: #0069d9;" d="M217.259,393.89v-95.165h0c0-25.022-9.744-48.546-27.437-66.238l-51.718-51.719c-8.823-8.823-20.567-13.572-33.03-13.338
			c-4.829,0.086-9.518,0.92-13.949,2.43v-59.689c0-11.873-4.455-23.188-12.544-31.861c-8.266-8.863-19.407-13.979-31.371-14.403
			c-12.487-0.456-24.309,4.082-33.285,12.745C4.945,85.318,0,96.962,0,109.439v128.316c0,25.021,9.744,48.545,27.437,66.238
			l64.089,64.089v25.809H52.57v117.91h190.894V393.89H217.259z M48.65,282.78C36.624,270.754,30,254.764,30,237.756V109.439
			c0-4.262,1.689-8.239,4.757-11.2c3.065-2.957,7.118-4.487,11.386-4.352c8.261,0.294,14.981,7.599,14.981,16.284v94.956
			c-0.499,3-0.706,6.075-0.597,9.193c0.413,11.853,5.264,23.004,13.66,31.399l51.905,51.905l21.213-21.213L95.4,224.508
			c-6.142-6.142-6.555-16.06-0.922-22.107c2.917-3.133,6.869-4.899,11.128-4.975c4.249-0.082,8.271,1.543,11.284,4.556
			l51.718,51.719c12.026,12.026,18.65,28.017,18.65,45.025v95.166h-65.733v-38.234L48.65,282.78z M213.464,481.801H82.57v-57.91
			h130.894V481.801z"/>
	</g>
</g>
<g>
	<g>
		<circle style="fill: #0069d9;" cx="111.71" cy="452.85" r="15"/>
	</g>
</g>
<g>
	<g>
		<polygon style="fill: #0069d9;" points="243.067,78.098 269.915,11.402 242.085,0.199 198.651,108.098 268.933,108.098 242.085,174.792 269.915,185.995 
			313.349,78.098 		"/>
	</g>
</g>
<g>
</g>
<g>
</g>
<g>
</g>
<g>
</g>
<g>
</g>
<g>
</g>
<g>
</g>
<g>
</g>
<g>
</g>
<g>
</g>
<g>
</g>
<g>
</g>
<g>
</g>
<g>
</g>
<g>
</g>
</svg>
